<?xml version="1.0" encoding="UTF-8" standalone="no"?>
<!DOCTYPE svg PUBLIC "-//W3C//DTD SVG 1.1//EN"
 "http://www.w3.org/Graphics/SVG/1.1/DTD/svg11.dtd">
<!-- Generated by graphviz version 2.44.0 (0)
 -->
<!-- Pages: 1 -->
<svg width="526pt" height="355pt"
 viewBox="0.00 0.00 525.59 355.00" xmlns="http://www.w3.org/2000/svg" xmlns:xlink="http://www.w3.org/1999/xlink">
<g id="graph0" class="graph" transform="scale(1 1) rotate(0) translate(4 351)">
<polygon fill="#333333" stroke="transparent" points="-4,4 -4,-351 521.59,-351 521.59,4 -4,4"/>
<text text-anchor="middle" x="258.79" y="-9.2" font-family="Times-Roman" font-size="16.00" fill="white">Network Map</text>
<!-- R6 -->
<g id="node1" class="node">
<title>R6</title>
<polygon fill="#006699" stroke="#006699" points="86.59,-223 10.59,-223 10.59,-150 86.59,-150 86.59,-223"/>
<text text-anchor="middle" x="48.59" y="-182.8" font-family="Helvetica" font-size="14.00" fill="white">R6</text>
</g>
<!-- R3 -->
<g id="node2" class="node">
<title>R3</title>
<polygon fill="#006699" stroke="#006699" points="209.59,-223 133.59,-223 133.59,-150 209.59,-150 209.59,-223"/>
<text text-anchor="middle" x="171.59" y="-182.8" font-family="Helvetica" font-size="14.00" fill="white">R3</text>
</g>
<!-- R4 -->
<g id="node4" class="node">
<title>R4</title>
<polygon fill="#006699" stroke="#006699" points="148.59,-347 72.59,-347 72.59,-274 148.59,-274 148.59,-347"/>
<text text-anchor="middle" x="110.59" y="-306.8" font-family="Helvetica" font-size="14.00" fill="white">R4</text>
</g>
<!-- R3&#45;&#45;R4 -->
<g id="edge6" class="edge">
<title>R3&#45;&#45;R4</title>
<path fill="none" stroke="green" stroke-dasharray="5,2" d="M133.33,-213.06C124.59,-220.91 116.46,-230.34 111.59,-241 106.99,-251.06 105.6,-262.85 105.7,-273.79"/>
<text text-anchor="middle" x="161.59" y="-244.8" font-family="Courier" font-size="14.00" fill="white"> &#160;&#160;&#160;&#160;&#160;&#160;&#160;&#160;&#160;&#160;&#160;</text>
<text text-anchor="middle" x="80.7" y="-262.59" font-family="Courier" font-size="14.00" fill="white">Eth0/0</text>
<text text-anchor="middle" x="108.33" y="-216.86" font-family="Courier" font-size="14.00" fill="white">Eth0/1</text>
</g>
<!-- R5 -->
<g id="node8" class="node">
<title>R5</title>
<polygon fill="#006699" stroke="#006699" points="271.59,-347 195.59,-347 195.59,-274 271.59,-274 271.59,-347"/>
<text text-anchor="middle" x="233.59" y="-306.8" font-family="Helvetica" font-size="14.00" fill="white">R5</text>
</g>
<!-- R3&#45;&#45;R5 -->
<g id="edge7" class="edge">
<title>R3&#45;&#45;R5</title>
<path fill="none" stroke="green" stroke-dasharray="5,2" d="M200.82,-223.28C204.76,-229.01 208.5,-235.02 211.59,-241 216.86,-251.21 221.18,-262.93 224.56,-273.75"/>
<text text-anchor="middle" x="268.59" y="-244.8" font-family="Courier" font-size="14.00" fill="white"> &#160;&#160;&#160;&#160;&#160;&#160;&#160;&#160;&#160;&#160;&#160;</text>
<text text-anchor="middle" x="199.56" y="-262.55" font-family="Courier" font-size="14.00" fill="white">Eth0/0</text>
<text text-anchor="middle" x="175.82" y="-227.08" font-family="Courier" font-size="14.00" fill="white">Eth0/2</text>
</g>
<!-- R1 -->
<g id="node3" class="node">
<title>R1</title>
<polygon fill="#006699" stroke="#006699" points="332.59,-223 256.59,-223 256.59,-150 332.59,-150 332.59,-223"/>
<text text-anchor="middle" x="294.59" y="-182.8" font-family="Helvetica" font-size="14.00" fill="white">R1</text>
</g>
<!-- SW2 -->
<g id="node5" class="node">
<title>SW2</title>
<polygon fill="#006699" stroke="#006699" points="462.09,-347 373.09,-347 373.09,-274 462.09,-274 462.09,-347"/>
<text text-anchor="middle" x="417.59" y="-306.8" font-family="Helvetica" font-size="14.00" fill="white">SW2</text>
</g>
<!-- R2 -->
<g id="node6" class="node">
<title>R2</title>
<polygon fill="#006699" stroke="#006699" points="455.59,-223 379.59,-223 379.59,-150 455.59,-150 455.59,-223"/>
<text text-anchor="middle" x="417.59" y="-182.8" font-family="Helvetica" font-size="14.00" fill="white">R2</text>
</g>
<!-- R2&#45;&#45;SW2 -->
<g id="edge5" class="edge">
<title>R2&#45;&#45;SW2</title>
<path fill="none" stroke="green" stroke-dasharray="5,2" d="M417.59,-223.12C417.59,-239.01 417.59,-257.7 417.59,-273.63"/>
<text text-anchor="middle" x="467.59" y="-244.8" font-family="Courier" font-size="14.00" fill="white"> &#160;&#160;&#160;&#160;&#160;&#160;&#160;&#160;&#160;&#160;&#160;</text>
<text text-anchor="middle" x="388.59" y="-262.43" font-family="Courier" font-size="14.00" fill="white">Eth0/11</text>
<text text-anchor="middle" x="392.59" y="-226.92" font-family="Courier" font-size="14.00" fill="white">Eth0/1</text>
</g>
<!-- SW1 -->
<g id="node7" class="node">
<title>SW1</title>
<polygon fill="#006699" stroke="#006699" points="277.09,-99 188.09,-99 188.09,-26 277.09,-26 277.09,-99"/>
<text text-anchor="middle" x="232.59" y="-58.8" font-family="Helvetica" font-size="14.00" fill="white">SW1</text>
</g>
<!-- SW1&#45;&#45;R6 -->
<g id="edge4" class="edge">
<title>SW1&#45;&#45;R6</title>
<path fill="none" stroke="green" stroke-dasharray="5,2" d="M187.94,-65.85C149.82,-70.29 96.27,-82.72 64.59,-117 56.38,-125.88 52.13,-138.14 50,-149.83"/>
<text text-anchor="middle" x="114.59" y="-120.8" font-family="Courier" font-size="14.00" fill="white"> &#160;&#160;&#160;&#160;&#160;&#160;&#160;&#160;&#160;&#160;&#160;</text>
<text text-anchor="middle" x="25" y="-138.63" font-family="Courier" font-size="14.00" fill="white">Eth0/1</text>
<text text-anchor="middle" x="162.94" y="-54.65" font-family="Courier" font-size="14.00" fill="white">Eth0/5</text>
</g>
<!-- SW1&#45;&#45;R3 -->
<g id="edge3" class="edge">
<title>SW1&#45;&#45;R3</title>
<path fill="none" stroke="green" stroke-dasharray="5,2" d="M187.93,-95.24C181.73,-101.7 176.24,-109 172.59,-117 167.99,-127.06 166.6,-138.85 166.7,-149.79"/>
<text text-anchor="middle" x="222.59" y="-120.8" font-family="Courier" font-size="14.00" fill="white"> &#160;&#160;&#160;&#160;&#160;&#160;&#160;&#160;&#160;&#160;&#160;</text>
<text text-anchor="middle" x="141.7" y="-138.59" font-family="Courier" font-size="14.00" fill="white">Eth0/0</text>
<text text-anchor="middle" x="162.93" y="-84.04" font-family="Courier" font-size="14.00" fill="white">Eth0/3</text>
</g>
<!-- SW1&#45;&#45;R1 -->
<g id="edge1" class="edge">
<title>SW1&#45;&#45;R1</title>
<path fill="none" stroke="green" stroke-dasharray="5,2" d="M261.82,-99.28C265.76,-105.01 269.5,-111.02 272.59,-117 277.86,-127.21 282.18,-138.93 285.56,-149.75"/>
<text text-anchor="middle" x="329.59" y="-120.8" font-family="Courier" font-size="14.00" fill="white"> &#160;&#160;&#160;&#160;&#160;&#160;&#160;&#160;&#160;&#160;&#160;</text>
<text text-anchor="middle" x="260.56" y="-138.55" font-family="Courier" font-size="14.00" fill="white">Eth0/0</text>
<text text-anchor="middle" x="236.82" y="-103.08" font-family="Courier" font-size="14.00" fill="white">Eth0/1</text>
</g>
<!-- SW1&#45;&#45;R2 -->
<g id="edge2" class="edge">
<title>SW1&#45;&#45;R2</title>
<path fill="none" stroke="green" stroke-dasharray="5,2" d="M277.14,-70.08C309.89,-76.92 353.72,-90.53 383.59,-117 393.42,-125.72 400.74,-137.94 406.01,-149.65"/>
<text text-anchor="middle" x="446.59" y="-120.8" font-family="Courier" font-size="14.00" fill="white"> &#160;&#160;&#160;&#160;&#160;&#160;&#160;&#160;&#160;&#160;&#160;</text>
<text text-anchor="middle" x="381.01" y="-138.45" font-family="Courier" font-size="14.00" fill="white">Eth0/0</text>
<text text-anchor="middle" x="302.14" y="-58.88" font-family="Courier" font-size="14.00" fill="white">Eth0/2</text>
</g>
</g>
</svg>
